<?xml version="1.0" standalone="no"?><!DOCTYPE svg PUBLIC "-//W3C//DTD SVG 1.1//EN" "http://www.w3.org/Graphics/SVG/1.1/DTD/svg11.dtd"><svg t="1701404756324" class="icon" viewBox="0 0 1024 1024" version="1.1" xmlns="http://www.w3.org/2000/svg" p-id="3014" xmlns:xlink="http://www.w3.org/1999/xlink" width="200" height="200"><path d="M276.024 504.628c-18.045 81.369-6.253 202.383 70.432 255.953 25.686 17.938 64.381 22.708 141.663 33.209 66.162 8.996 105.498 13.872 154.148-1.558 58.447-18.557 93.524-54.798 102.445-64.434 11.184-12.069 45.172-51.362 57.423-112.050 11.279-55.853-2.572-98.572-24.107-162.579-33.508-99.596-50.816-151.043-102.073-178.65-58.692-31.608-125.506-12.337-174.904 1.91-76.001 21.919-122.635 63.666-132.325 72.566-18.055 16.615-73.484 68.969-92.703 155.632z" fill="#6BE166" p-id="3015"></path><path d="M686.083 667.794c-41.853 42.835-98.251 47.435-183.282 119.221-11.429 9.657-21.589 19.027-19.208 25.612 6.051 16.711 89.641 6.743 158.662-20.404 30.681-12.070 67.902-27.127 102.445-64.434 11.184-12.070 45.173-51.362 57.423-112.050 10.276-50.882-1.291-89.032-24.107-162.579-7.278-23.477-46.816-156.357-69.79-152.206-3.201 0.576-7.748 4.13-11.738 23.477-15.603 75.618 33.274 120.533 40.007 190.463 4.663 48.565-10.682 112.221-50.411 152.9z" fill="#5BBF57" p-id="3016"></path><path d="M350.757 768.49c-64.925-45.034-127.256-130.991-125.315-220.066 1.259-57.924 29.347-102.061 2.509-135.196-17.075-21.128-51.138-29.88-75.532-21.172-43.24 15.462-34.703 139.518-30.563 199.673 7 101.731 10.501 152.601 48.907 182.385 44.511 34.511 95.861 13.466 121.249 50.946 21.503 31.737-7.47 71.168 11.205 84.571 22.155 15.911 61.755-40.679 124.301-34.64 41.864 4.055 46.036 31.48 85.617 32.612 43.913 1.27 53.912-32.099 108.006-55.022 83.856-35.536 125.922 16.647 173.497-20.084 37.841-29.229 12.059-62.962 64.914-142.933 28.813-43.582 51.682-59.301 44.82-77.432-8.613-22.784-59.183-34.746-89.009-16.338-25.793 15.922-20.2 44.767-42.792 87.111-21.983 41.213-53.688 63.41-80.995 82.522-79.972 55.983-228.496 80.911-340.812 3.063z" fill="#6BE166" p-id="3017"></path><path d="M350.757 768.49c-64.925-45.034-127.256-130.991-125.315-220.066 1.43-65.587 24.266-122.924 2.509-135.196-13.798-7.779-39.997 6.563-53.272 24.875-15.655 21.589-11.834 46.612-8.003 76.834 18.643 147.223 5.656 166.175 33.615 198.445 22.409 25.879 56.409 43.337 62.428 46.42 35.568 18.248 64.701 21.342 78.435 48.021 6.649 12.913 3.468 19.273 11.205 25.612 15.207 12.453 38.556-3.009 75.233-9.605 18.142-3.265 45.353 0.918 100.044 5.603 70.954 6.082 64.455 14.513 93.641 12.005 64.306-5.518 110.396-47.679 125.646-61.627 21.055-19.208 35.387-39.303 45.621-53.624 19.070-26.678 28.961-47.211 33.615-57.625 10.436-23.349 27.041-60.486 14.407-72.032-6.157-5.623-17.768-3.81-25.195-0.768-27.287 11.162-23.754 51.415-42.792 87.111-21.983 41.213-53.688 63.41-80.995 82.523-79.982 56.015-228.507 80.942-340.823 3.095z" fill="#5BBF57" p-id="3018"></path><path d="M329.713 217.833c-39.046 43.155-90.578 19.603-118.197 58.020-29.197 40.722-9.935 120.331 21.471 129.711 35.899 10.672 58.692-78.968 164.34-134.524 25.612-13.478 93.492-48.022 175.012-32.654 91.347 17.234 145.035 86.705 158.94 105.241 78.872 105.188 62.962 236.393 89.512 236.904 5.613 0.107 8.473-5.699 33.774-51.426 47.328-85.531 50.028-88.189 49.772-98.359-1.142-45.023-56.986-44.393-97.814-115.134-37.915-65.682-12.731-96.042-50.946-131.439-38.513-35.621-102.051-39.794-146.7-27.479-36.347 10.031-33.925 22.816-61.137 28.524-74.785 15.709-135.153-90.526-175.236-71.317-27.521 13.179-5.048 62.204-42.792 103.929z" fill="#6BE166" p-id="3019"></path><path d="M369.954 229.968c-33.658 46.816-76.93 35.525-113.64 75.233-35.909 38.822-41.618 100.525-28.364 107.974 17.961 10.105 59.759-84.688 169.418-142.176 26.336-13.798 93.781-47.968 175.012-32.654 91.347 17.234 145.035 86.705 158.94 105.241 78.872 105.188 62.962 236.393 89.512 236.904 0.023 0 0.052 0.001 0.080 0.001 0.586 0 1.154-0.074 1.695-0.214 9.354-2.733 8.607-31.694 8.351-41.394-1.291-50.155-22.912-104.003-28.813-118.453-22.826-55.876-23.199-49.963-36.816-84.838-32.197-82.457-27.916-109.916-57.625-129.647-16.060-10.672-32.014-12.251-63.922-15.367-49.441-4.823-60.944 7.128-102.541 7.362-78.968 0.438-110.118-42.217-142.453-20.81-17.757 11.803-8.665 24.832-28.835 52.834z" fill="#5BBF57" p-id="3020"></path><path d="M311.816 933.875c-0.040 0-0.088 0-0.136 0-7.873 0-15.142-2.588-21.001-6.96-19.223-13.807-15.914-36.473-13.503-53.024 2.369-16.242 3.447-27.575-2.828-36.837-7.886-11.643-20.094-14.214-42.771-18.142-21.641-3.703-48.565-8.324-73.878-27.949-45.972-35.6-49.942-93.183-57.134-197.741-2.134-30.947-5.336-77.614-2.486-119.52 1.782-26.123 13.873-93.385 47.168-101.72 22.666-5.689 51.063 17.362 56.558 9.605 1.814-2.561-0.107-6.733-1.132-9.070-11.344-25.793-21.994-74.582-7.171-105.199 4.713-9.458 11.559-17.229 19.942-22.905 4.773-7.755 24.492-9.878 44.096-15.384 33.007-9.515 61.442-25.991 84.802-47.828l-12.641 36.591-15.827-14.321c15.462-17.075 17.928-36.006 20.275-54.296 2.518-19.305 5.656-43.337 29.079-54.563 29.88-14.342 59.759 8.388 88.572 30.37 28.205 21.513 60.176 45.887 91.551 39.313 8.794-1.847 12.218-4.268 18.429-8.633 8.014-5.656 18.995-13.393 41.416-19.582 50.561-13.894 121.771-9.294 166.901 32.463 25.345 23.477 29.026 46.741 32.58 69.278 3.041 19.208 6.179 39.142 22.357 67.155 18.867 32.676 39.281 48.086 57.295 61.681 19.71 14.865 40.082 30.243 43.263 62.001 4.599 45.887-30.029 82.17-57.849 111.368-7.822 8.195-15.207 15.932-20.479 22.656-5.213 6.351-9.057 14.030-10.961 22.444 10.695-12.21 21.548-11.164 27.887-10.555 10.063 0.961 20.467 1.963 30.039 4.823 14.79 4.418 24.821 12.656 29.805 24.48 4.845 11.493 3.757 24-3.201 37.179-4.589 8.655-11.503 17.501-19.518 27.745-7.278 9.294-15.537 19.827-23.947 32.57-25.003 37.852-30.808 64.124-35.472 85.233-4.994 22.581-9.7 43.913-34.212 62.833-30.435 23.477-59.439 19.208-87.505 14.941-26.242-3.917-53.358-7.971-90.708 7.865-20.275 8.613-33.433 18.717-46.111 28.483-18.035 13.873-36.678 28.258-67.849 28.258h-2.988c-26.198-0.758-41.426-10.938-53.666-19.123-10.105-6.756-18.142-12.091-33.359-13.574-27.5-2.657-50.273 10.18-70.368 21.513-13.702 7.684-28.589 16.081-43.315 16.081zM161.797 411.819c-0.043-0.001-0.093-0.002-0.143-0.002-0.735 0-1.442 0.122-2.102 0.346-5.492 1.971-15.715 17.776-18.853 64.42-2.657 39.015 0.438 83.963 2.486 113.715 6.968 101.741 10.991 143.979 40.658 166.975 16.882 13.094 35.365 16.252 54.925 19.603 24.545 4.215 52.45 8.985 70.911 36.283 16.008 23.67 12.379 48.672 9.722 66.931-0.384 2.668-0.886 6.051-1.195 9.028 4.738-2.134 10.928-5.666 15.922-8.537 23.029-12.987 54.562-30.776 95.445-26.827 25.964 2.509 40.946 12.529 52.983 20.574 10.394 6.947 17.256 11.536 31.16 11.941 17.075 0.491 25.612-5.581 43.551-19.358 13.425-10.352 30.146-23.222 55.492-33.978 48.427-20.521 84.614-15.122 113.693-10.778 26.379 3.937 39.741 5.336 55.097-6.552 11.664-9.007 13.872-16.861 18.622-38.257 5.143-23.253 12.175-55.097 41.533-99.542 9.369-14.182 18.569-25.931 25.964-35.365 5.613-7.171 12.977-16.562 15.666-21.79-5.336-1.889-16.69-2.977-23.243-3.607-21.215-2.038-47.616-4.567-58.533-27.233-6.68-13.873-4.429-29.368 6.691-46.057 7.181-10.778 17.576-21.674 28.589-33.209 22.922-24.022 48.907-51.223 46.26-77.634-1.217-12.155-7.47-17.821-26.498-32.175s-45.364-34.222-68.563-74.412c-20.137-34.874-24.246-60.923-27.543-81.838-3.201-20.116-4.929-31.203-19.412-44.596-32.878-30.457-88.647-33.070-126.573-22.613-15.249 4.205-21.236 8.431-28.173 13.318-7.886 5.56-16.839 11.867-34.255 15.527-50.497 10.596-92.468-21.417-126.201-47.146-12.070-9.209-23.477-17.907-32.836-22.666-6.403-3.265-10.148-3.735-11.376-3.148-2.486 1.217-4.066 12.987-5.133 21.578-2.775 21.279-6.585 50.434-30.947 77.41-25.675 28.386-55.748 34.149-79.918 38.833-21.342 4.119-30.541 6.669-35.546 15.462-10.085 17.768 1.642 48.47 11.077 73.142 4.386 11.482 8.537 22.325 10.566 31.918 4.546 21.439-3.277 32.794-10.672 38.535-6.285 4.91-17.075 9.54-33.083 3.724-6.862-2.509-13.435-6.403-20.393-10.512-7.876-4.653-19.315-11.429-25.825-11.429zM840.499 573.758z" fill="#000000" p-id="3021"></path><path d="M519.14 831.985c-2.304 0-4.429 0-6.403-0.064-10.938-0.224-50.358-2.134-98.177-17.075-64.509-20.191-116.606-54.83-154.842-102.958-32.927-41.084-55.146-92.069-61.677-147.848-16.107-49.145 12.129-126.962 25.394-156.18 23.978-52.769 62.535-96.246 114.686-129.219 44.183-28.303 96.814-47.491 153.364-53.613-46.084 7.512 118.864-39.368 216.934 52.439 28.493 26.678 47.2 74.529 84.464 169.899 34.735 88.797 33.988 116.617 33.647 128.516-1.067 36.902-12.731 93.322-62.781 152.601-36.935 43.753-86.437 74.209-147.266 90.708-29.321 8.119-62.991 12.788-97.749 12.795zM544.538 253.22q-4.429 0-8.932 0.117c-38.949 1.12-75.968 7.657-110.882 18.882-38.101 11.755-128.007 51.72-172.113 148.872-11.845 26.092-37.051 95.542-15.409 176.73 13.775 49.222 39.968 91.194 75.015 123.77 6.782 13.39 53.736 44.455 111.981 62.692 43.753 13.713 79.395 15.419 89.266 15.622 1.535 0.024 3.344 0.038 5.158 0.038 31.832 0 62.662-4.298 91.937-12.346 51.996-14.157 96.111-41.21 128.776-79.861 44.063-52.14 54.349-100.984 55.224-132.763 0.246-9.092 0.918-33.231-31.417-115.987-35.503-90.867-53.358-136.477-76.524-158.183-33.828-31.587-81.583-47.584-142.068-47.584z" fill="#000000" p-id="3022"></path><path d="M580.362 823.768c-8.839-0.003-16.003-7.167-16.003-16.008 0-2.526 0.585-4.916 1.627-7.042 35.952-74.722 43.519-134.461 22.421-177.468-14.012-28.568-37.35-44.297-62.033-60.944-12.496-8.419-25.409-17.138-37.051-27.618-3.256-2.942-5.293-7.178-5.293-11.893 0-8.84 7.166-16.008 16.008-16.008 4.127 0 7.89 1.562 10.728 4.127 9.963 8.973 21.403 16.688 33.517 24.852 25.825 17.416 55.107 37.158 72.875 73.399 25.612 52.291 18.142 121.43-22.409 205.542-2.644 5.397-8.092 9.050-14.393 9.061zM467.384 489.4c-7.12-0.004-13.152-4.654-15.229-11.082-0.49-1.563-0.928-3.058-1.343-4.541-0.453-1.414-0.713-3.039-0.713-4.726 0-8.84 7.166-16.008 16.008-16.008 7.488 0 13.775 5.14 15.523 12.085q0.503 1.818 1.016 3.473c0.472 1.442 0.744 3.1 0.744 4.823 0 8.84-7.166 16.008-16.008 16.008-0.003 0-0.007 0-0.008 0zM465.42 424.518c-0.008 0-0.014 0-0.022 0-8.84 0-16.008-7.166-16.008-16.008 0-0.988 0.090-1.956 0.261-2.893l0.647-3.593c3.414-18.974 5.677-31.513-2.839-45.631-14.941-24.864-54.702-37.989-114.867-37.989h-0.876c-8.84 0-16.008-7.166-16.008-16.008s7.166-16.008 16.008-16.008c73.493-0.149 121.654 17.853 143.167 53.474 14.737 24.448 10.767 46.506 6.925 67.827l-0.652 3.607c-1.372 7.556-7.896 13.212-15.742 13.222z" fill="#000000" p-id="3023"></path><path d="M602.772 632.227c-0.015 0-0.033 0-0.050 0-8.84 0-16.008-7.166-16.008-16.008 0-5.901 3.193-11.056 7.945-13.832 30.127-17.446 48.908-38.308 55.919-62.042 3.916-13.275 3.329-24.321 2.71-36.006-0.8-15.047-1.633-30.617 7.8-47.692 15.249-27.618 48.373-43.294 101.25-47.946 0.338-0.025 0.731-0.039 1.128-0.039 8.84 0 16.008 7.166 16.008 16.008 0 8.248-6.24 15.040-14.258 15.912-50.984 4.477-69.52 19.621-76.104 31.54-5.004 9.050-4.524 18.055-3.863 30.509s1.505 28.226-3.97 46.773c-9.401 31.865-33.082 58.991-70.495 80.644-2.3 1.367-5.070 2.175-8.031 2.177z" fill="#000000" p-id="3024"></path></svg>